#Unknown ASF file
:ROOT_YZX
:FOOT_3DOF
:FULLY-SPECIFIED
:DEGREES
346
root -0.592301 17.5276 47.7411 -4.51819 141.732 1.47871
lfemur -6.20916 -5.61957 -22.7419
ltibia 29.6798
lfoot -14.226 0 -24.7956
ltoes -3.33491
rfemur -8.8834 11.9949 14.0973
rtibia 35.6827
rfoot -19.4349 0 8.10564
rtoes -22.7696
lowerback 10.4632 1.47157 -4.71034
upperback 2.65512 1.65961 1.35206
thorax -3.25967 0.922118 3.8431
lowerneck -18.5468 4.21724 -8.57323
upperneck 24.8651 8.08096 4.20351
head 10.5218 3.64921 4.10994
lclavicle 9.0944e-014 -3.57812e-015
lhumerus -29.9417 3.99283 81.5292
lradius 34.829
lwrist 4.86153
lhand -12.5792 32.6004
lfingers 7.12502
lthumb 13.4988 62.1429
rclavicle 9.0944e-014 -3.57812e-015
rhumerus -35.2322 -9.46723 -77.9385
rradius 34.9944
rwrist 0.488604
rhand -21.0098 14.0272
rfingers 7.12502
rthumb 5.36488 -15.8849
347
root -0.420954 17.5414 47.7065 -4.31063 144.599 0.874944
lfemur -6.15894 -7.58198 -21.8922
ltibia 29.5792
lfoot -14.3093 0 -25.6034
ltoes -3.43039
rfemur -7.96746 9.8705 15.1497
rtibia 34.9481
rfoot -18.6654 0 7.40009
rtoes -17.3418
lowerback 9.29026 1.32971 -3.53087
upperback 3.22772 1.65991 1.02334
thorax -1.9788 0.89446 2.86254
lowerneck -17.6337 3.84767 -8.27953
upperneck 23.0025 7.43704 3.42855
head 9.77602 3.32792 3.58605
lclavicle 3.77194e-014 -8.94531e-015
lhumerus -29.4186 6.19058 80.2595
lradius 33.51
lwrist 2.98641
lhand -13.0846 32.6492
lfingers 7.12502
lthumb 13.0116 62.2235
rclavicle 3.77194e-014 -8.94531e-015
rhumerus -34.4357 -9.41094 -78.1769
rradius 34.0613
rwrist 0.262593
rhand -20.4568 14.6088
rfingers 7.12502
rthumb 5.89876 -15.2891
348
root -0.259983 17.5581 47.6937 -4.01635 147.317 0.229099
lfemur -6.3356 -9.34512 -20.8732
ltibia 29.5376
lfoot -13.992 0 -26.2525
ltoes -2.55365
rfemur -6.54537 6.41973 16.3219
rtibia 33.4988
rfoot -18.8263 0 6.3277
rtoes -13.042
lowerback 9.3453 1.46017 -3.1752
upperback 2.96934 1.85975 1.33317
thorax -2.29302 0.998885 2.95619
lowerneck -18.4221 3.51769 -9.20379
upperneck 24.4556 7.22774 4.36513
head 10.3838 3.24037 4.14116
lclavicle 9.21864e-015 -1.51076e-014
lhumerus -30.2126 8.34856 79.7403
lradius 33.3914
lwrist 4.61456
lhand -12.9043 32.9725
lfingers 7.12502
lthumb 13.1854 62.5355
rclavicle 9.21864e-015 -1.51076e-014
rhumerus -34.7313 -9.82532 -76.7739
rradius 32.5021
rwrist 1.1922
rhand -16.8776 17.9689
rfingers 7.12502
rthumb 9.35347 -11.8036
349
root -0.0925412 17.5904 47.686 -3.6277 149.516 -0.722799
lfemur -6.61563 -11.3709 -19.4526
ltibia 29.5181
lfoot -11.9501 0 -26.6137
ltoes 1.90405
rfemur -4.99313 4.50844 17.8027
rtibia 31.3037
rfoot -18.9935 0 5.32737
rtoes -12.4761
lowerback 9.48837 1.82421 -2.50579
upperback 2.51088 2.39153 1.64838
thorax -2.87667 1.26869 2.83148
lowerneck -17.6915 3.04788 -9.3946
upperneck 24.1321 6.58809 4.28802
head 10.1782 2.94636 4.02744
lclavicle -1.21259e-014 -4.96962e-015
lhumerus -32.2268 9.72578 79.2343
lradius 33.562
lwrist 5.29402
lhand -14.5568 31.6243
lfingers 7.12502
lthumb 11.5922 61.2837
rclavicle -1.21259e-014 -4.96962e-015
rhumerus -35.5776 -12.4827 -74.0217
rradius 29.6419
rwrist 6.98412
rhand -16.7513 21.7462
rfingers 7.12502
rthumb 9.47533 -8.02081
350
root 0.0584086 17.6063 47.6935 -2.9878 150.615 -2.1292
lfemur -7.47293 -12.9084 -17.4502
ltibia 30.0944
lfoot -11.4913 0 -26.3134
ltoes 3.16311
rfemur -4.55172 4.23486 19.7193
rtibia 29.9058
rfoot -18.9309 0 5.18666
rtoes -12.2529
lowerback 8.92293 2.29873 -1.13641
upperback 2.79038 3.18067 1.84009
thorax -2.26884 1.65797 2.19306
lowerneck -18.8076 2.58353 -9.37854
upperneck 23.835 5.91529 4.46222
head 10.3271 2.63584 4.0263
lclavicle 2.51463e-014 -1.25234e-014
lhumerus -33.1279 10.8744 78.6773
lradius 33.9377
lwrist 5.53173
lhand -16.9705 28.3952
lfingers 7.12502
lthumb 9.26378 58.1717
rclavicle 2.51463e-014 -1.25234e-014
rhumerus -34.4698 -11.0618 -75.4266
rradius 29.8931
rwrist 2.08092
rhand -19.2303 15.5241
rfingers 7.12502
rthumb 7.08285 -14.3374
351
root 0.211114 17.6205 47.7387 -2.40552 151.865 -3.24228
lfemur -8.67323 -13.6354 -15.6239
ltibia 31.3411
lfoot -12.877 0 -26.3091
ltoes -0.931522
rfemur -4.34703 3.22272 21.3607
rtibia 28.9294
rfoot -18.936 0 5.14576
rtoes -13.2905
lowerback 9.11153 2.71205 -0.611914
upperback 2.70933 3.80188 2.23424
thorax -2.48049 1.97342 2.22483
lowerneck -19.3408 2.21619 -9.86001
upperneck 23.6101 5.43482 4.93473
head 10.3525 2.42316 4.21897
lclavicle 1.92821e-014 -2.78299e-014
lhumerus -33.7873 10.6618 79.0962
lradius 31.8168
lwrist 10.4285
lhand -18.1083 27.114
lfingers 7.12502
lthumb 8.16581 56.9362
rclavicle 1.92821e-014 -2.78299e-014
rhumerus -33.6485 -11.1724 -75.0857
rradius 28.7545
rwrist 1.2754
rhand -21.1839 12.9942
rfingers 7.12502
rthumb 5.19681 -16.9221
352
root 0.343651 17.6245 47.7791 -1.77527 153.829 -4.1501
lfemur -10.9054 -14.0948 -13.9632
ltibia 33.5898
lfoot -9.65408 0 -27.6752
ltoes 4.47158
rfemur -4.12509 2.32804 22.8041
rtibia 27.8875
rfoot -18.6227 0 4.40053
rtoes -12.4588
lowerback 9.43117 2.72951 0.0593383
upperback 2.54324 3.91342 2.50948
thorax -2.81003 2.03307 2.09952
lowerneck -19.5255 2.01503 -9.81385
upperneck 23.2903 5.20226 4.65345
head 10.3044 2.28685 4.07178
lclavicle -2.60408e-014 1.98785e-015
lhumerus -35.3282 12.1756 78.1503
lradius 32.9458
lwrist 4.39654
lhand -10.7878 36.5404
lfingers 7.12502
lthumb 15.2249 65.9601
rclavicle -2.60408e-014 1.98785e-015
rhumerus -32.7326 -12.0777 -74.4148
rradius 27.3837
rwrist 1.9785
rhand -22.0423 12.3588
rfingers 7.12502
rthumb 4.36793 -17.5761
353
root 0.497673 17.6068 47.8465 -1.54592 156.408 -5.14623
lfemur -13.5812 -12.1681 -12.2099
ltibia 37.6387
lfoot -7.94087 0 -29.0782
ltoes 4.58293
rfemur -3.59906 2.22116 24.8178
rtibia 27.1798
rfoot -18.4246 0 2.13431
rtoes -12.9364
lowerback 10.3273 2.74254 0.459251
upperback 2.68857 4.0469 2.92579
thorax -3.16211 2.1179 2.24847
lowerneck -19.9707 1.60552 -9.84306
upperneck 22.91 4.68771 4.45978
head 10.3007 2.01921 3.93576
lclavicle 3.77691e-014 -8.54774e-015
lhumerus -35.8841 12.8842 77.9652
lradius 30.9781
lwrist 2.47867
lhand -11.3844 32.6154
lfingers 7.12502
lthumb 14.6502 62.0778
rclavicle 3.77691e-014 -8.54774e-015
rhumerus -31.4418 -13.7192 -73.6316
rradius 26.2065
rwrist 3.00871
rhand -22.7679 12.3371
rfingers 7.12502
rthumb 3.66725 -17.6111
354
root 0.636367 17.5828 47.9298 -1.23901 159.764 -5.97358
lfemur -17.5874 -8.81635 -10.8778
ltibia 43.3891
lfoot -4.49566 0 -29.9338
ltoes 3.97124
rfemur -3.55841 1.45836 26.4871
rtibia 27.0405
rfoot -18.503 0 0.318247
rtoes -9.4247
lowerback 10.0753 1.93387 1.37439
upperback 3.37665 3.1245 3.12744
thorax -2.23693 1.6905 2.09095
lowerneck -18.6826 1.73272 -10.3152
upperneck 21.234 4.77263 4.44892
head 9.4452 2.05793 3.914
lclavicle -2.97183e-014 -5.56597e-015
lhumerus -35.7439 14.0267 77.8075
lradius 28.7705
lwrist 3.04994
lhand -13.9546 30.6327
lfingers 7.12502
lthumb 12.1729 60.2586
rclavicle -2.97183e-014 -5.56597e-015
rhumerus -29.2815 -15.1986 -73.4327
rradius 25.2304
rwrist 6.69285
rhand -21.8945 12.5247
rfingers 7.12502
rthumb 4.51066 -17.4072
355
root 0.735604 17.32 48.0168 -0.980453 163.439 -6.81541
lfemur -19.8768 -3.98082 -10.8577
ltibia 50.7899
lfoot -30.6484 0 -3.37868
ltoes -57.7752
rfemur -4.5155 0.0927861 28.0696
rtibia 28.5142
rfoot -19.4461 0 -1.95433
rtoes -11.0355
lowerback 10.5496 1.45411 2.53714
upperback 3.71618 2.69506 3.31894
thorax -2.09122 1.51301 1.67991
lowerneck -17.4799 1.29652 -10.642
upperneck 20.0112 4.00953 4.69507
head 8.85083 1.7315 3.88678
lclavicle -3.74212e-014 3.69739e-014
lhumerus -35.5906 14.4301 77.9868
lradius 27.2605
lwrist 1.28997
lhand -13.7204 30.7965
lfingers 7.12502
lthumb 12.3987 60.4088
rclavicle -3.74212e-014 3.69739e-014
rhumerus -28.3636 -14.6168 -74.0892
rradius 25.8018
rwrist 4.09448
rhand -23.2191 12.262
rfingers 7.12502
rthumb 3.23153 -17.6932
356
root 0.855552 17.5363 48.0287 -1.28439 165.753 -8.05807
lfemur -27.0037 -2.99473 -9.00817
ltibia 56.8712
lfoot -2.29807 0 -22.3535
ltoes -24.4055
rfemur -2.96859 -0.96476 29.897
rtibia 26.6407
rfoot -18.9882 0 -2.91189
rtoes -8.95921
lowerback 11.5857 1.19747 3.8603
upperback 4.24005 2.69604 3.90191
thorax -2.08428 1.58141 1.5218
lowerneck -17.3961 1.17841 -11.7342
upperneck 19.8336 4.01518 5.22307
head 8.74037 1.71793 4.2392
lclavicle -1.49585e-014 -5.56597e-015
lhumerus -35.8035 15.6933 78.4081
lradius 26.5256
lwrist -0.746188
lhand -13.435 31.7697
lfingers 7.12502
lthumb 12.6738 61.3652
rclavicle -1.49585e-014 -5.56597e-015
rhumerus -27.3274 -12.1846 -74.854
rradius 27.2679
rwrist 1.99528
rhand -24.754 8.72817
rfingers 7.12502
rthumb 1.74913 -21.2444
